<?xml version="1.0" standalone="no"?>
<!DOCTYPE svg PUBLIC "-//W3C//DTD SVG 20010904//EN"
 "http://www.w3.org/TR/2001/REC-SVG-20010904/DTD/svg10.dtd">
<svg version="1.0" xmlns="http://www.w3.org/2000/svg"
 width="1412.000000pt" height="1126.000000pt" viewBox="0 0 1412.000000 1126.000000"
 preserveAspectRatio="xMidYMid meet">

<g transform="translate(0.000000,1126.000000) scale(0.100000,-0.100000)"
fill="#000000" stroke="none">
<path d="M0 5630 l0 -5630 7060 0 7060 0 0 5630 0 5630 -7060 0 -7060 0 0
-5630z m7271 3350 c851 -84 1557 -632 1847 -1435 43 -120 96 -304 89 -312 -3
-2 -49 25 -104 60 -91 59 -101 69 -121 116 -51 124 -168 259 -302 351 -85 58
-246 135 -345 166 -50 15 -91 28 -92 28 -1 1 18 67 42 146 29 95 40 147 33
151 -12 7 -134 22 -393 46 -138 13 -292 17 -660 17 -514 1 -806 -13 -1205 -59
-213 -24 -304 -29 -296 -16 4 6 0 11 -9 11 -9 0 -13 5 -10 10 3 6 -1 10 -10
10 -9 0 -13 5 -10 10 3 6 -1 10 -10 10 -9 0 -13 5 -10 10 3 6 -1 10 -10 10 -9
0 -13 5 -10 10 3 6 -1 10 -10 10 -9 0 -13 5 -10 10 3 6 -1 10 -10 10 -9 0 -13
5 -10 10 3 6 -1 10 -10 10 -9 0 -13 5 -10 10 3 6 -2 10 -11 10 -25 0 37 64
141 145 425 333 984 497 1516 445z m264 -760 c247 -7 662 -36 674 -46 2 -2
-33 -126 -77 -276 -201 -681 -397 -1415 -390 -1462 4 -27 18 11 103 279 37
116 99 302 139 414 l71 203 75 -6 c41 -4 153 -18 249 -32 96 -14 181 -23 190
-21 29 6 -402 127 -454 127 -9 0 -18 6 -21 13 -3 8 25 92 62 188 36 96 71 189
77 208 6 18 17 35 24 38 8 3 48 -7 91 -22 248 -88 444 -242 532 -417 22 -44
40 -86 40 -93 0 -8 47 -44 105 -81 82 -52 105 -72 105 -89 l0 -23 -97 23 c-54
13 -101 21 -105 19 -3 -2 13 -41 37 -87 46 -88 100 -235 111 -305 8 -50 -8
-42 199 -108 271 -87 461 -199 506 -299 33 -72 20 -125 -59 -242 -21 -32 -65
-110 -97 -173 -31 -63 -59 -116 -60 -118 -2 -2 -49 11 -104 28 -100 31 -101
31 -94 58 5 15 7 59 7 98 -2 119 -59 219 -166 295 -94 66 -152 82 -303 83
-113 1 -140 -2 -205 -24 -120 -39 -263 -149 -317 -243 -7 -13 -40 -11 -253 19
-135 18 -258 34 -273 34 -22 0 -47 20 -116 89 -49 50 -92 87 -95 84 -3 -4 -6
1 -6 11 0 9 -4 14 -10 11 -5 -3 -10 1 -10 10 0 9 -4 13 -10 10 -5 -3 -10 1
-10 10 0 9 -4 13 -10 10 -5 -3 -10 1 -10 10 0 9 -4 13 -10 10 -5 -3 -10 1 -10
10 0 9 -4 13 -10 10 -5 -3 -10 1 -10 10 0 9 -4 13 -10 10 -5 -3 -10 1 -10 10
0 9 -4 13 -10 10 -5 -3 -10 1 -10 10 0 9 -4 13 -10 10 -5 -3 -10 1 -10 10 0 9
-4 13 -10 10 -5 -3 -10 1 -10 10 0 9 -4 13 -10 10 -5 -3 -10 1 -10 10 0 9 -4
13 -10 10 -5 -3 -10 1 -10 10 0 9 -4 13 -10 10 -5 -3 -10 1 -10 10 0 9 -4 13
-10 10 -5 -3 -10 1 -10 10 0 9 -4 13 -10 10 -5 -3 -10 1 -10 10 0 9 -4 13 -10
10 -5 -3 -10 1 -10 10 0 9 -4 13 -10 10 -5 -3 -10 1 -10 10 0 9 -4 13 -10 10
-5 -3 -10 1 -10 10 0 9 -4 13 -10 10 -5 -3 -10 1 -10 10 0 9 -4 13 -10 10 -5
-3 -10 1 -10 10 0 9 -4 13 -10 10 -5 -3 -10 1 -10 10 0 9 -4 13 -10 10 -5 -3
-10 1 -10 10 0 9 -4 13 -10 10 -5 -3 -10 1 -10 10 0 9 -4 13 -10 10 -5 -3 -10
1 -10 10 0 9 -4 13 -10 10 -5 -3 -10 1 -10 10 0 9 -4 13 -10 10 -5 -3 -10 1
-10 10 0 9 -4 13 -10 10 -5 -3 -10 1 -10 10 0 9 -4 13 -10 10 -5 -3 -10 1 -10
10 0 9 -4 13 -10 10 -5 -3 -10 1 -10 10 0 9 -4 13 -10 10 -5 -3 -10 1 -10 10
0 9 -4 13 -10 10 -5 -3 -10 1 -10 10 0 9 -4 13 -10 10 -5 -3 -10 1 -10 10 0 9
-4 13 -10 10 -5 -3 -10 1 -10 10 0 9 -4 13 -10 10 -5 -3 -10 1 -10 10 0 9 -4
13 -10 10 -5 -3 -10 1 -10 10 0 9 -4 13 -10 10 -5 -3 -10 1 -10 10 0 9 -4 13
-10 10 -5 -3 -10 1 -10 10 0 9 -4 13 -10 10 -5 -3 -10 1 -10 10 0 9 -4 13 -10
10 -5 -3 -10 1 -10 10 0 9 -4 13 -10 10 -5 -3 -10 1 -10 10 0 9 -4 13 -10 10
-5 -3 -10 1 -10 10 0 9 -4 13 -10 10 -5 -3 -10 1 -10 10 0 9 -4 13 -10 10 -5
-3 -10 1 -10 10 0 9 -4 13 -10 10 -5 -3 -10 1 -10 10 0 9 -4 13 -10 10 -5 -3
-10 1 -10 10 0 9 -4 13 -10 10 -5 -3 -10 1 -10 10 0 9 -4 13 -10 10 -5 -3 -10
1 -10 10 0 9 -4 13 -10 10 -5 -3 -10 1 -10 10 0 9 -4 13 -10 10 -5 -3 -10 1
-10 10 0 9 -4 13 -10 10 -5 -3 -10 1 -10 10 0 9 -4 13 -10 10 -5 -3 -10 1 -10
10 0 9 -4 13 -10 10 -5 -3 -10 1 -10 10 0 9 -4 13 -10 10 -5 -3 -10 1 -10 10
0 9 -4 13 -10 10 -5 -3 -10 1 -10 10 0 9 -4 13 -10 10 -5 -3 -10 1 -10 10 0 9
-4 13 -10 10 -5 -3 -10 1 -10 10 0 9 -4 13 -10 10 -5 -3 -10 1 -10 10 0 9 -4
13 -10 10 -5 -3 -10 1 -10 10 0 9 -5 13 -11 9 -7 -4 -10 -1 -7 7 3 9 31 17 83
22 44 4 81 10 84 13 16 15 -36 24 -127 22 -79 -2 -102 0 -102 10 0 7 -4 10
-10 7 -5 -3 -10 1 -10 10 0 9 -4 13 -10 10 -5 -3 -10 2 -10 11 0 10 -3 14 -7
11 -3 -4 -11 3 -18 16 -6 12 -17 21 -23 20 -7 -2 -11 3 -9 10 1 6 -4 11 -10
10 -7 -2 -12 3 -10 10 1 6 -5 11 -13 9 -12 -2 -11 1 2 11 19 15 306 42 561 54
81 3 147 10 147 15 0 7 -30 9 -190 12 -19 0 -164 -3 -322 -7 -224 -5 -287 -4
-285 6 1 7 -4 11 -10 10 -7 -2 -12 3 -10 10 1 6 -4 11 -10 10 -7 -2 -12 3 -10
10 1 6 -4 11 -10 10 -7 -2 -12 3 -10 10 1 6 -4 11 -10 10 -7 -2 -12 2 -10 9 1
6 -8 17 -21 23 -17 9 -20 14 -10 22 32 26 773 79 1168 84 46 0 59 3 45 9 -32
14 -480 10 -907 -8 -218 -9 -394 -14 -391 -9 2 4 -3 7 -12 7 -9 0 -13 5 -10
10 3 6 -1 10 -10 10 -9 0 -13 5 -10 10 3 6 -1 10 -10 10 -9 0 -13 5 -10 10 3
6 -1 10 -10 10 -9 0 -13 5 -10 10 3 6 -1 10 -10 10 -9 0 -14 4 -10 9 3 5 -3
11 -12 13 -50 11 43 28 267 52 324 34 501 46 809 55 141 4 261 8 266 9 6 1
141 -3 300 -8z m1506 -1920 c158 -49 266 -201 244 -343 -15 -100 -96 -216
-202 -288 -24 -17 -43 -34 -41 -39 2 -4 35 -32 73 -61 93 -71 165 -132 161
-136 -2 -2 -52 8 -112 22 -168 40 -473 101 -631 126 -78 12 -140 26 -137 31 3
4 -2 8 -11 8 -9 0 -13 5 -10 10 3 6 -1 10 -10 10 -9 0 -13 5 -10 10 3 6 -1 10
-10 10 -9 0 -13 5 -10 10 3 6 -1 10 -10 10 -9 0 -13 5 -10 10 3 6 -1 10 -10
10 -9 0 -13 5 -10 10 3 6 -1 10 -10 10 -9 0 -13 5 -10 10 3 6 -1 10 -10 10 -9
0 -13 5 -10 10 3 6 -1 10 -10 10 -9 0 -13 5 -10 10 3 6 -1 10 -10 10 -9 0 -13
5 -10 10 3 6 -1 10 -10 10 -9 0 -13 5 -10 10 3 6 -1 10 -10 10 -9 0 -13 5 -10
10 3 6 -1 10 -10 10 -9 0 -13 5 -10 10 3 6 -1 10 -10 10 -9 0 -13 5 -10 10 3
6 -1 10 -10 10 -9 0 -13 5 -10 10 3 6 -1 10 -10 10 -9 0 -13 5 -10 10 3 6 -1
10 -10 10 -9 0 -13 5 -10 10 3 6 -1 10 -10 10 -9 0 -13 5 -10 10 3 6 -1 10
-10 10 -9 0 -13 5 -10 10 3 6 -1 10 -10 10 -9 0 -13 5 -10 10 3 6 -2 10 -11
10 -10 0 -15 3 -11 6 3 4 -12 24 -35 46 -22 21 -38 41 -35 44 6 6 177 -40 360
-98 71 -22 130 -38 131 -36 1 1 8 23 15 47 65 226 365 368 612 291z m-405
-840 c118 -21 112 -16 68 -61 -21 -21 -46 -39 -57 -39 -10 0 -15 5 -12 10 3 6
-1 10 -10 10 -9 0 -13 5 -10 10 3 6 -1 10 -10 10 -9 0 -13 5 -10 10 3 6 -1 10
-10 10 -9 0 -13 5 -10 10 3 6 -1 10 -10 10 -9 0 -14 4 -10 9 3 5 -3 12 -12 14
-36 9 34 7 93 -3z m1179 -1505 c79 -41 109 -93 102 -181 -8 -102 -10 -104
-133 -104 -102 0 -104 0 -94 20 18 34 8 81 -23 104 -37 28 -127 27 -165 -1
-36 -27 -41 -77 -11 -109 23 -25 61 -41 175 -73 152 -44 200 -104 192 -238 -8
-134 -64 -206 -191 -244 -58 -18 -87 -21 -200 -17 -116 3 -138 7 -181 29 -71
35 -98 89 -94 184 l3 70 108 3 c74 2 107 -1 102 -8 -12 -19 15 -77 41 -88 73
-34 168 -19 192 30 27 57 -21 99 -173 148 -96 31 -138 54 -168 90 -56 66 -60
172 -9 272 53 104 166 150 358 145 101 -2 116 -5 169 -32z m900 0 c80 -40 109
-91 102 -181 -7 -102 -10 -104 -133 -104 -97 0 -106 1 -99 18 27 62 7 105 -54
122 -47 12 -113 0 -142 -26 -30 -27 -25 -77 11 -107 30 -26 41 -30 165 -66 93
-27 157 -68 179 -116 25 -52 18 -182 -12 -241 -43 -84 -129 -131 -257 -142
-175 -15 -311 15 -358 79 -25 34 -37 101 -30 162 l6 47 106 0 106 0 1 -32 c3
-64 95 -104 179 -76 44 14 62 47 52 90 -8 29 -71 65 -172 98 -165 53 -215 106
-215 224 0 109 52 196 143 241 74 35 125 44 252 42 100 -2 115 -5 170 -32z
m1295 8 c108 -48 145 -148 98 -265 l-10 -28 -103 0 -103 0 10 28 c26 68 -20
117 -108 116 -85 -2 -133 -46 -112 -104 12 -35 53 -57 163 -91 110 -32 141
-48 177 -86 35 -37 48 -73 48 -137 0 -213 -152 -309 -449 -284 -94 8 -163 36
-194 79 -25 34 -37 101 -30 162 l6 47 102 0 102 0 7 -40 c9 -54 40 -73 121
-74 54 -1 67 3 89 23 25 24 32 53 20 86 -8 20 -78 55 -169 85 -165 54 -215
106 -215 224 0 142 89 244 240 276 78 16 259 6 310 -17z m-10779 -73 l-15 -90
-148 0 c-145 0 -148 0 -153 -22 -3 -13 -28 -153 -55 -313 -28 -159 -53 -302
-56 -317 l-6 -28 -104 0 c-71 0 -104 4 -104 11 0 7 25 153 55 324 30 172 55
320 55 329 0 14 -19 16 -145 16 -80 0 -145 3 -145 8 0 4 7 42 15 85 8 43 15
81 15 83 0 2 181 4 403 4 l404 0 -16 -90z m1125 62 c75 -44 92 -100 69 -233
-22 -128 -60 -203 -121 -237 -14 -8 -10 -28 36 -178 29 -93 54 -172 57 -176 2
-5 -50 -8 -116 -8 l-120 0 -53 163 -53 162 -32 3 c-40 4 -47 -9 -63 -123 -6
-44 -16 -108 -22 -142 l-10 -63 -109 0 c-94 0 -109 2 -109 16 0 19 139 813
145 832 4 11 51 13 232 10 218 -3 230 -4 269 -26z m1078 1 c-29 -147 -110
-630 -107 -635 2 -5 76 -8 164 -8 87 0 159 -3 159 -7 0 -5 -7 -47 -16 -95
l-16 -88 -275 0 c-216 0 -274 3 -271 13 3 6 38 200 78 430 l74 417 108 0 108
0 -6 -27z m2022 0 c-3 -16 -11 -56 -17 -90 l-12 -63 -193 0 -193 0 -7 -37 c-4
-21 -8 -58 -8 -83 l-1 -45 153 -3 c83 -1 152 -6 152 -10 0 -4 -7 -42 -15 -85
-8 -43 -15 -81 -15 -83 0 -2 -72 -4 -159 -4 l-159 0 -11 -50 c-21 -98 -36 -90
173 -90 102 0 187 -4 190 -9 3 -4 -1 -46 -9 -92 -8 -46 -15 -85 -15 -86 0 -2
-135 -3 -301 -3 l-301 0 6 28 c9 42 146 816 146 825 0 4 135 7 301 7 l301 0
-6 -27z m483 -101 c24 -70 47 -131 51 -136 5 -4 55 53 112 128 l103 136 123 0
124 0 -50 -62 c-137 -174 -275 -354 -279 -365 -2 -6 35 -100 82 -210 48 -109
89 -204 92 -211 4 -10 -21 -12 -117 -10 l-122 3 -52 123 c-29 67 -57 127 -63
133 -7 7 -41 -32 -107 -125 l-97 -136 -120 0 c-94 0 -118 3 -112 13 4 6 74
102 155 211 81 110 148 205 148 211 0 11 -146 401 -157 418 -2 4 51 7 119 7
l123 0 44 -128z m1239 103 c94 -44 110 -119 67 -319 -37 -176 -138 -246 -351
-246 -88 0 -105 -3 -112 -17 -5 -10 -17 -63 -26 -118 -25 -149 -11 -135 -132
-135 -57 0 -104 3 -104 6 0 8 139 801 145 832 l5 22 228 0 c220 0 229 -1 280
-25z m875 1 c80 -40 101 -114 73 -256 -20 -99 -55 -171 -96 -202 -17 -12 -30
-29 -30 -38 0 -12 40 -148 94 -317 7 -23 7 -23 -113 -23 -105 0 -120 2 -125
18 -33 116 -91 290 -98 300 -14 17 -67 15 -74 -2 -3 -8 -16 -81 -28 -163 l-22
-148 -112 -3 c-88 -2 -112 0 -112 11 0 14 136 786 145 825 l6 23 227 -3 c198
-3 232 -5 265 -22z m1006 2 c0 -13 -6 -52 -13 -88 l-12 -65 -194 -5 -195 -5
-12 -70 c-7 -38 -11 -76 -8 -82 3 -10 44 -13 158 -13 l153 0 -15 -90 -15 -90
-162 0 -162 0 -7 -47 c-3 -27 -9 -58 -12 -70 l-5 -23 191 0 191 0 0 -27 c-1
-16 -6 -57 -13 -93 l-12 -65 -298 -3 c-257 -2 -297 0 -297 13 0 16 139 813
145 833 3 9 72 12 300 12 l295 0 -1 -22z m3874 -2 c81 -40 101 -113 72 -256
-21 -102 -52 -167 -99 -206 l-34 -29 54 -170 c29 -93 54 -171 54 -172 0 -2
-53 -3 -118 -3 l-119 0 -47 153 c-27 83 -53 158 -58 165 -12 14 -64 16 -73 3
-3 -5 -14 -69 -25 -143 -11 -73 -22 -143 -25 -155 -5 -22 -10 -23 -115 -23
-65 0 -110 4 -110 10 0 11 137 793 145 828 l6 23 227 -3 c198 -3 232 -5 265
-22z m621 7 c-2 -10 -26 -148 -54 -308 -28 -159 -53 -302 -56 -317 l-6 -28
161 0 c88 0 162 -4 165 -8 3 -5 -2 -48 -11 -95 l-16 -87 -268 0 c-208 0 -269
3 -269 13 -1 6 32 200 72 429 l73 418 107 0 c96 0 106 -2 102 -17z m-12122
-644 c23 -12 32 -49 25 -107 -4 -36 -12 -53 -36 -74 -27 -24 -40 -28 -91 -28
-79 0 -100 19 -100 93 0 61 27 114 62 121 13 3 32 7 43 10 24 5 73 -3 97 -15z
m1340 11 c45 -13 58 -34 58 -95 0 -90 -38 -125 -135 -125 -74 0 -95 21 -95 93
0 61 27 114 62 121 13 3 32 7 43 9 11 3 22 5 25 6 3 0 22 -4 42 -9z m1229 0
c56 -16 75 -81 45 -154 -21 -50 -51 -66 -122 -66 -68 0 -89 14 -100 66 -8 40
11 106 36 129 11 10 37 21 58 25 20 4 39 8 42 9 3 0 21 -4 41 -9z"/>
<path d="M6930 8829 c-259 -16 -530 -90 -766 -209 -172 -87 -380 -226 -363
-244 3 -3 75 3 161 14 748 93 1604 106 2258 34 59 -7 64 -6 52 9 -47 57 -383
237 -542 291 -263 88 -523 122 -800 105z"/>
<path d="M8465 8157 c-14 -46 -25 -88 -25 -94 0 -6 26 -21 58 -34 67 -26 170
-78 230 -114 23 -14 42 -22 42 -17 0 27 -251 342 -272 342 -4 0 -19 -37 -33
-83z"/>
<path d="M8170 7045 c-27 -88 -40 -149 -34 -154 5 -4 70 -16 144 -26 74 -9
214 -30 310 -46 96 -16 177 -25 181 -21 8 9 -32 167 -54 208 -24 46 -101 110
-155 129 -42 14 -287 55 -331 55 -15 0 -26 -28 -61 -145z"/>
<path d="M8824 6081 c-118 -29 -173 -146 -105 -223 26 -29 35 -33 97 -36 60
-3 74 -1 104 20 79 54 101 131 53 188 -38 46 -93 64 -149 51z"/>
<path d="M2035 3788 c-7 -21 -25 -141 -25 -170 0 -27 1 -28 60 -28 32 0 70 5
83 11 58 26 77 130 32 174 -20 21 -34 25 -85 25 -39 0 -62 -4 -65 -12z"/>
<path d="M6837 3713 c-27 -152 -32 -138 45 -141 113 -5 158 37 158 147 0 67
-20 81 -116 81 l-72 0 -15 -87z"/>
<path d="M7736 3778 c-9 -44 -26 -155 -26 -171 0 -14 11 -17 71 -17 67 0 73 2
100 31 24 26 29 40 29 81 0 72 -29 98 -109 98 -55 0 -61 -2 -65 -22z"/>
<path d="M12615 3788 c-5 -17 -25 -164 -25 -185 0 -13 12 -15 76 -11 70 3 78
6 100 33 34 43 34 116 -1 150 -20 21 -34 25 -85 25 -40 0 -62 -4 -65 -12z"/>
</g>
</svg>
